<svg width="274" height="81" viewBox="0 0 274 81" fill="none" xmlns="http://www.w3.org/2000/svg">
<path d="M105.086 21.8346H98.4264V11.5836H95.9154V24.1836H105.086V21.8346ZM110.521 15.2286C107.911 15.2286 106.111 17.1006 106.111 19.8456C106.111 22.5906 107.965 24.4086 110.638 24.4086C112.105 24.4086 113.365 23.9946 114.355 23.0856L112.978 21.5736C112.348 22.1046 111.529 22.4106 110.773 22.4106C109.666 22.4106 108.784 21.8616 108.532 20.6016H114.715C114.742 20.4036 114.76 20.0796 114.76 19.8096C114.751 17.0916 113.032 15.2286 110.521 15.2286ZM110.503 17.2536C111.511 17.2536 112.186 17.8836 112.402 18.9996H108.541C108.748 17.9196 109.396 17.2536 110.503 17.2536ZM125.257 15.4626H122.962V16.4256C122.386 15.7146 121.549 15.2286 120.352 15.2286C117.949 15.2286 116.131 17.1996 116.131 19.8186C116.131 22.4376 117.949 24.4086 120.352 24.4086C121.549 24.4086 122.395 23.9226 122.962 23.2206V24.1836H125.257V15.4626ZM120.784 17.4156C122.125 17.4156 123.034 18.4416 123.034 19.8186C123.034 21.1956 122.125 22.2216 120.784 22.2216C119.407 22.2216 118.534 21.1506 118.534 19.8186C118.534 18.4866 119.407 17.4156 120.784 17.4156ZM132.623 15.2286C131.426 15.2286 130.589 15.7146 130.022 16.4256V15.4626H127.727V27.7836H130.067V23.2746C130.634 23.9496 131.462 24.4086 132.632 24.4086C135.035 24.4086 136.853 22.4376 136.853 19.8186C136.853 17.1996 135.035 15.2286 132.623 15.2286ZM132.191 17.4156C133.577 17.4156 134.441 18.4866 134.441 19.8186C134.441 21.1506 133.577 22.2216 132.191 22.2216C130.859 22.2216 129.95 21.1956 129.95 19.8186C129.95 18.4416 130.859 17.4156 132.191 17.4156ZM144.501 15.4626H141.792V14.4096C141.792 13.5996 142.143 13.1856 142.818 13.1856C143.367 13.1856 143.88 13.3746 144.312 13.6086L145.248 11.7816C144.582 11.3406 143.754 10.9986 142.566 10.9986C140.532 10.9986 139.443 12.3396 139.443 14.3826V15.4626H137.814V17.5506H139.443V24.1836H141.792V17.5506H144.501V15.4626ZM150.848 15.2286C149.777 15.2286 148.94 15.5976 148.391 16.4166V15.4626H146.114V24.1836H148.463V19.4316C148.463 18.1356 149.21 17.4696 150.299 17.4696C150.776 17.4696 151.334 17.5776 151.721 17.7486L152.072 15.4176C151.748 15.3006 151.352 15.2286 150.848 15.2286ZM157.541 15.2286C154.832 15.2286 152.834 17.1906 152.834 19.8186C152.834 22.4466 154.832 24.4086 157.541 24.4086C160.259 24.4086 162.266 22.4466 162.266 19.8186C162.266 17.1906 160.259 15.2286 157.541 15.2286ZM157.541 17.4156C158.864 17.4156 159.863 18.4056 159.863 19.8186C159.863 21.2316 158.864 22.2216 157.541 22.2216C156.218 22.2216 155.228 21.2316 155.228 19.8186C155.228 18.4056 156.218 17.4156 157.541 17.4156ZM167.658 15.2286C165.534 15.2286 163.644 17.0016 163.644 19.6836C163.644 22.3566 165.534 24.1296 167.658 24.1296C168.864 24.1296 169.746 23.6796 170.34 22.9506V23.5626C170.34 25.0656 169.314 25.8756 167.856 25.8756C166.812 25.8756 165.849 25.5606 164.976 24.9846L164.139 26.9016C165.12 27.5946 166.578 27.9546 167.955 27.9546C170.835 27.9546 172.662 26.2626 172.662 23.4636V15.4626H170.358V16.4346C169.764 15.6966 168.873 15.2286 167.658 15.2286ZM168.252 17.3886C169.557 17.3886 170.439 18.3786 170.439 19.6836C170.439 20.9796 169.557 21.9696 168.252 21.9696C166.911 21.9696 166.056 20.9436 166.056 19.6836C166.056 18.4146 166.911 17.3886 168.252 17.3886ZM105.311 35.7806C104.123 34.9616 102.674 34.4036 100.775 34.4036C98.1204 34.4036 95.9604 35.7626 95.9604 38.1926C95.9604 40.3436 97.6164 41.3066 99.6954 41.5586L100.865 41.7026C102.827 41.9456 103.88 42.5036 103.88 43.6736C103.88 45.0956 102.404 45.8606 100.523 45.8606C98.9214 45.8606 97.2924 45.2216 96.4194 44.4656L95.5554 45.7256C96.7704 46.7426 98.7324 47.3636 100.523 47.3636C103.25 47.3636 105.527 46.0496 105.527 43.5386C105.527 41.3156 103.7 40.4516 101.567 40.1906L100.46 40.0556C98.5704 39.8216 97.6074 39.2366 97.6074 38.0936C97.6074 36.7346 98.9214 35.9066 100.766 35.9066C102.224 35.9066 103.475 36.3746 104.501 37.0676L105.311 35.7806ZM113.835 38.6336H110.244V35.9516H108.768V38.6336H106.941V39.9746H108.768V44.1686C108.768 46.3466 109.875 47.3636 111.729 47.3636C112.782 47.3636 113.637 46.9946 114.294 46.5176L113.601 45.4106C113.115 45.7436 112.485 45.9866 111.855 45.9866C110.928 45.9866 110.244 45.4286 110.244 44.1416V39.9746H113.835V38.6336ZM123.899 38.6336H122.423V43.4666C122.423 45.2126 121.388 45.9866 120.002 45.9866C118.607 45.9866 117.572 45.2126 117.572 43.4666V38.6336H116.096V43.6016C116.096 46.1846 117.941 47.3636 120.002 47.3636C122.045 47.3636 123.899 46.1846 123.899 43.6016V38.6336ZM130.553 38.4536C128.15 38.4536 126.278 40.3256 126.278 42.9086C126.278 45.4916 128.15 47.3636 130.553 47.3636C131.894 47.3636 132.893 46.8416 133.568 46.0406V47.1836H135.044V34.2236H133.568V39.7856C132.893 38.9756 131.894 38.4536 130.553 38.4536ZM130.724 39.8396C132.452 39.8396 133.658 41.1626 133.658 42.9086C133.658 44.6636 132.452 45.9866 130.724 45.9866C128.969 45.9866 127.781 44.6096 127.781 42.9086C127.781 41.2076 128.942 39.8396 130.724 39.8396ZM141.759 38.4536C139.302 38.4536 137.511 40.2806 137.511 42.9086C137.511 45.5726 139.311 47.3636 141.849 47.3636C143.109 47.3636 144.297 47.0576 145.359 46.0676L144.576 45.0596C143.847 45.6896 142.938 46.0766 141.939 46.0766C140.472 46.0766 139.239 45.2036 139.032 43.4306H145.755C145.764 43.2686 145.782 43.0706 145.782 42.8816C145.764 40.2626 144.09 38.4536 141.759 38.4536ZM141.732 39.7586C143.118 39.7586 144.099 40.7306 144.279 42.2426H139.05C139.275 40.7846 140.22 39.7586 141.732 39.7586ZM152.505 38.4536C151.515 38.4536 150.408 38.7866 149.706 39.7496V38.6336H148.248V47.1836H149.715V42.3866C149.715 40.7936 150.867 39.8486 152.244 39.8486C153.729 39.8486 154.593 40.7756 154.593 42.3506V47.1836H156.069V41.8736C156.069 39.8216 154.611 38.4536 152.505 38.4536ZM164.776 38.6336H161.185V35.9516H159.709V38.6336H157.882V39.9746H159.709V44.1686C159.709 46.3466 160.816 47.3636 162.67 47.3636C163.723 47.3636 164.578 46.9946 165.235 46.5176L164.542 45.4106C164.056 45.7436 163.426 45.9866 162.796 45.9866C161.869 45.9866 161.185 45.4286 161.185 44.1416V39.9746H164.776V38.6336ZM176.966 42.1436C179.81 42.1436 181.421 40.7216 181.421 38.3636C181.421 36.0056 179.81 34.5836 176.966 34.5836H172.178V47.1836H173.762V42.1436H176.966ZM176.93 36.0776C178.793 36.0776 179.774 36.8336 179.774 38.3636C179.774 39.8936 178.793 40.6496 176.93 40.6496H173.762V36.0776H176.93ZM191.716 38.6336H190.24V39.7856C189.565 38.9756 188.566 38.4536 187.225 38.4536C184.822 38.4536 182.95 40.3256 182.95 42.9086C182.95 45.4916 184.822 47.3636 187.225 47.3636C188.566 47.3636 189.565 46.8416 190.24 46.0406V47.1836H191.716V38.6336ZM187.396 39.8396C189.124 39.8396 190.33 41.1626 190.33 42.9086C190.33 44.6636 189.124 45.9866 187.396 45.9866C185.641 45.9866 184.453 44.6096 184.453 42.9086C184.453 41.2076 185.614 39.8396 187.396 39.8396ZM198.781 38.4536C197.764 38.4536 196.873 38.9216 196.279 39.7586V38.6336H194.83V47.1836H196.297V42.4226C196.297 40.8476 197.215 39.8486 198.52 39.8486C199.006 39.8486 199.582 39.9656 199.987 40.1816L200.347 38.7326C199.888 38.5346 199.393 38.4536 198.781 38.4536ZM208.352 38.6336H204.761V35.9516H203.285V38.6336H201.458V39.9746H203.285V44.1686C203.285 46.3466 204.392 47.3636 206.246 47.3636C207.299 47.3636 208.154 46.9946 208.811 46.5176L208.118 45.4106C207.632 45.7436 207.002 45.9866 206.372 45.9866C205.445 45.9866 204.761 45.4286 204.761 44.1416V39.9746H208.352V38.6336ZM214.96 38.4536C213.97 38.4536 212.863 38.7866 212.161 39.7496V38.6336H210.703V47.1836H212.17V42.3866C212.17 40.7936 213.322 39.8486 214.699 39.8486C216.184 39.8486 217.048 40.7756 217.048 42.3506V47.1836H218.524V41.8736C218.524 39.8216 217.066 38.4536 214.96 38.4536ZM225.149 38.4536C222.692 38.4536 220.901 40.2806 220.901 42.9086C220.901 45.5726 222.701 47.3636 225.239 47.3636C226.499 47.3636 227.687 47.0576 228.749 46.0676L227.966 45.0596C227.237 45.6896 226.328 46.0766 225.329 46.0766C223.862 46.0766 222.629 45.2036 222.422 43.4306H229.145C229.154 43.2686 229.172 43.0706 229.172 42.8816C229.154 40.2626 227.48 38.4536 225.149 38.4536ZM225.122 39.7586C226.508 39.7586 227.489 40.7306 227.669 42.2426H222.44C222.665 40.7846 223.61 39.7586 225.122 39.7586ZM235.59 38.4536C234.573 38.4536 233.682 38.9216 233.088 39.7586V38.6336H231.639V47.1836H233.106V42.4226C233.106 40.8476 234.024 39.8486 235.329 39.8486C235.815 39.8486 236.391 39.9656 236.796 40.1816L237.156 38.7326C236.697 38.5346 236.202 38.4536 235.59 38.4536ZM245.421 39.3896C244.593 38.8226 243.36 38.4626 242.01 38.4626C239.931 38.4626 238.572 39.4526 238.572 41.0906C238.572 42.3866 239.499 43.2506 241.416 43.4846L242.406 43.6016C243.567 43.7456 244.125 44.1416 244.125 44.7716C244.125 45.6176 243.261 46.0766 241.857 46.0766C240.426 46.0766 239.571 45.6626 238.932 45.1676L238.248 46.2656C239.373 47.1116 240.795 47.3636 241.848 47.3636C244.179 47.3636 245.637 46.3106 245.637 44.6816C245.637 43.2686 244.566 42.5036 242.748 42.2606L241.758 42.1346C240.723 42.0086 240.102 41.6936 240.102 41.0096C240.102 40.2356 240.858 39.7406 242.028 39.7406C243.153 39.7406 244.242 40.1636 244.782 40.5326L245.421 39.3896ZM249.436 34.2236H247.969V47.1836H249.436V42.3866C249.436 40.7936 250.588 39.8486 251.965 39.8486C253.45 39.8486 254.314 40.7756 254.314 42.3506V47.1836H255.79V41.8736C255.79 39.8216 254.332 38.4536 252.226 38.4536C251.236 38.4536 250.138 38.7776 249.436 39.7406V34.2236ZM260.282 38.6336H258.815V47.1836H260.282V38.6336ZM259.535 34.5746C258.95 34.5746 258.5 35.0336 258.5 35.6276C258.5 36.2126 258.95 36.6536 259.535 36.6536C260.12 36.6536 260.588 36.2126 260.588 35.6276C260.588 35.0336 260.12 34.5746 259.535 34.5746ZM267.885 38.4536C266.535 38.4536 265.536 38.9756 264.87 39.7766V38.6336H263.403V50.7836H264.87V46.0406C265.536 46.8416 266.535 47.3636 267.885 47.3636C270.279 47.3636 272.16 45.4916 272.16 42.9086C272.16 40.3256 270.279 38.4536 267.885 38.4536ZM267.714 39.8396C269.46 39.8396 270.648 41.2076 270.648 42.9086C270.648 44.6096 269.487 45.9866 267.714 45.9866C265.986 45.9866 264.78 44.6636 264.78 42.9086C264.78 41.1626 265.986 39.8396 267.714 39.8396ZM101.063 65.1436C103.907 65.1436 105.518 63.7216 105.518 61.3636C105.518 59.0056 103.907 57.5836 101.063 57.5836H96.2754V70.1836H97.8594V65.1436H101.063ZM101.027 59.0776C102.89 59.0776 103.871 59.8336 103.871 61.3636C103.871 62.8936 102.89 63.6496 101.027 63.6496H97.8594V59.0776H101.027ZM111.928 61.4536C110.911 61.4536 110.02 61.9216 109.426 62.7586V61.6336H107.977V70.1836H109.444V65.4226C109.444 63.8476 110.362 62.8486 111.667 62.8486C112.153 62.8486 112.729 62.9656 113.134 63.1816L113.494 61.7326C113.035 61.5346 112.54 61.4536 111.928 61.4536ZM119.036 61.4536C116.444 61.4536 114.518 63.3706 114.518 65.9086C114.518 68.4466 116.444 70.3636 119.036 70.3636C121.628 70.3636 123.563 68.4466 123.563 65.9086C123.563 63.3706 121.628 61.4536 119.036 61.4536ZM119.036 62.8396C120.746 62.8396 122.051 64.1176 122.051 65.9086C122.051 67.6996 120.746 68.9866 119.036 68.9866C117.317 68.9866 116.021 67.6996 116.021 65.9086C116.021 64.1176 117.317 62.8396 119.036 62.8396ZM129.612 61.4536C127.209 61.4536 125.382 63.2356 125.382 65.8366C125.382 68.4466 127.209 70.2286 129.612 70.2286C130.935 70.2286 131.907 69.7156 132.555 68.8966V69.6526C132.555 71.5516 131.322 72.5866 129.486 72.5866C128.379 72.5866 127.362 72.2176 126.543 71.6326L125.904 72.8206C126.777 73.5226 128.154 73.9276 129.486 73.9276C132.186 73.9276 134.031 72.3526 134.031 69.5896V61.6336H132.555V62.7946C131.907 61.9756 130.935 61.4536 129.612 61.4536ZM129.783 62.8396C131.484 62.8396 132.681 64.1356 132.681 65.8366C132.681 67.5466 131.484 68.8426 129.783 68.8426C128.028 68.8426 126.885 67.5016 126.885 65.8366C126.885 64.1896 128.028 62.8396 129.783 62.8396ZM141.09 61.4536C140.073 61.4536 139.182 61.9216 138.588 62.7586V61.6336H137.139V70.1836H138.606V65.4226C138.606 63.8476 139.524 62.8486 140.829 62.8486C141.315 62.8486 141.891 62.9656 142.296 63.1816L142.656 61.7326C142.197 61.5346 141.702 61.4536 141.09 61.4536ZM152.446 61.6336H150.97V62.7856C150.295 61.9756 149.296 61.4536 147.955 61.4536C145.552 61.4536 143.68 63.3256 143.68 65.9086C143.68 68.4916 145.552 70.3636 147.955 70.3636C149.296 70.3636 150.295 69.8416 150.97 69.0406V70.1836H152.446V61.6336ZM148.126 62.8396C149.854 62.8396 151.06 64.1626 151.06 65.9086C151.06 67.6636 149.854 68.9866 148.126 68.9866C146.371 68.9866 145.183 67.6096 145.183 65.9086C145.183 64.2076 146.344 62.8396 148.126 62.8396ZM166.163 61.4536C165.002 61.4536 163.679 61.8766 162.977 63.1726C162.41 62.1016 161.267 61.4536 159.818 61.4536C158.828 61.4536 157.721 61.7866 157.019 62.7496V61.6336H155.561V70.1836H157.028V65.3866C157.028 63.7936 158.18 62.8486 159.557 62.8486C161.042 62.8486 161.906 63.7756 161.906 65.3506V70.1836H163.382V65.3866C163.382 63.8296 164.489 62.8486 165.902 62.8486C167.387 62.8486 168.251 63.7756 168.251 65.3506V70.1836H169.727V64.8736C169.727 62.8216 168.278 61.4536 166.163 61.4536Z" fill="#1B1717"/>
<path fill-rule="evenodd" clip-rule="evenodd" d="M40.2662 0.683594C29.4506 0.683594 20.526 8.82682 19.2217 19.3503H0.5V40.6836C0.5 51.5625 8.59564 60.5396 19.0576 61.8518V80.6836H40.2662C51.0818 80.6836 60.0064 72.5404 61.3107 62.0169H80.0325V40.6836C80.0325 29.8047 71.9368 20.8276 61.4749 19.5154V0.683594H40.2662ZM19.2217 24.6836C20.41 34.2699 27.9216 41.8811 37.4256 43.1607C36.242 50.821 29.6562 56.6836 21.7087 56.6836C12.9238 56.6836 5.80216 49.5202 5.80216 40.6836V24.6836H19.2217ZM24.3597 75.3503V61.8518C33.8902 60.6564 41.4566 53.1008 42.7288 43.5409C50.3445 44.7314 56.1727 51.3561 56.1727 59.3503C56.1727 68.1868 49.051 75.3503 40.2662 75.3503H24.3597ZM43.1068 38.2065C52.6109 39.4861 60.1224 47.0973 61.3107 56.6836H74.7303V40.6836C74.7303 31.847 67.6086 24.6836 58.8238 24.6836C50.8763 24.6836 44.2905 30.5462 43.1068 38.2065ZM56.1727 6.01693V19.5154C46.6423 20.7108 39.0758 28.2664 37.8036 37.8263C30.188 36.6358 24.3597 30.0111 24.3597 22.0169C24.3597 13.1803 31.4814 6.01693 40.2662 6.01693H56.1727Z" fill="#FFB001"/>
</svg>
